<svg width="413" height="302" viewBox="0 0 413 302" fill="none" xmlns="http://www.w3.org/2000/svg">
<path d="M364.762 270.315C364.762 270.315 356.799 238.023 371.855 236.606C382.807 235.573 378.637 270.315 378.637 270.315H364.762Z" fill="#A2ECC2"/>
<path d="M375.78 270.315C375.78 270.315 370.682 224.998 385.344 212.456C400.006 199.914 393.414 270.463 393.414 270.463L375.78 270.315Z" fill="#A2ECC2"/>
<path d="M393.02 270.315C393.02 270.315 387.889 236.352 402.56 226.824C417.23 217.297 410.621 269.988 410.621 269.988L393.02 270.315Z" fill="#A2ECC2"/>
<path d="M382.331 269.537L384.917 236.605" stroke="#686868" stroke-width="1.5"/>
<path d="M383.628 257.208L401.197 246.272L402.839 238.023" stroke="#686868" stroke-width="1.5"/>
<path d="M385.738 231.248L386.066 225.669" stroke="#686868" stroke-width="1.5"/>
<path d="M361.454 185.422L347.103 186.668L343.245 187.872C350.223 195.318 361.454 190.78 361.454 190.78V185.422Z" fill="#E5E5E5"/>
<path d="M291.532 140.875L290.186 149.165C308.182 155.088 325.274 143.767 325.274 143.767C308.329 149.697 291.532 140.875 291.532 140.875Z" fill="#E5E5E5"/>
<path d="M41.2206 177.296C39.8496 178.017 38.5443 178.861 37.3292 179.819C32.7565 183.514 29.2838 188.388 27.3053 193.917C24.6782 192.197 21.5913 191.312 18.4471 191.362C15.2699 191.452 12.1831 192.476 9.58065 194.294C6.74832 196.269 4.44141 198.915 2.87337 201.986C1.17398 205.263 0.197031 208.868 0 212.554L58.1817 211.637L42.5423 177.411L41.2206 177.296Z" fill="#FFDE83"/>
<path d="M283.61 273.985C285.227 273.805 287.419 283.029 288.881 283.996C290.966 285.405 293.445 288.346 297.632 288.592C302.624 288.878 308.748 285.61 310.653 284.07C313.329 281.907 314.347 272.191 315.792 272.191C318.895 272.29 316.523 272.093 319.806 272.093C323.181 271.978 326.563 272.044 329.929 272.298C331.489 272.388 332.244 283.799 335.528 285.61C342.481 289.419 346.176 296.161 357.62 286.789C360.945 284.07 363.055 275.239 363.055 275.239C374.417 277.508 382.93 280.334 382.93 283.472C382.93 289.763 354.673 294.858 319.847 294.858C285.022 294.858 256.765 289.763 256.765 283.472C256.765 279.392 265.853 276.001 283.61 273.985Z" fill="#E4E4E4"/>
<path d="M151.386 196.375L137.323 193.098L95.3221 196.375L138.144 207.598C143.488 202.675 151.139 201.143 157.97 203.633L166.656 194.581L151.386 196.375Z" fill="#E5E5E5"/>
<path d="M174.176 250.958L168.692 242.111H147.412L143.061 248.574L138.841 247.353C139.564 238.834 133.817 240.579 133.817 240.579L104.968 232.6L102.169 236.769L94.6818 234.615L104.968 232.6L132.996 227.119L160.088 234.615L179.282 230.871V249.803L174.176 250.958Z" fill="#E5E5E5"/>
<path d="M198.837 204.452L202.458 198.833L170.063 192.68L192.672 187.872L239.467 197.194L203 204.231L198.837 204.452Z" fill="#E5E5E5"/>
<path d="M218.376 240.579V231.551L207.77 224.555L216.045 223.638L257.306 232.698L218.376 240.579Z" fill="#E5E5E5"/>
<path d="M124.565 299.847L96.923 286.961L95.8311 280.015L123.218 292.458L124.565 299.847Z" stroke="#686868" stroke-width="1.5" stroke-linecap="round" stroke-linejoin="round"/>
<path d="M312.155 145.88C335.084 145.88 353.671 127.333 353.671 104.453C353.671 81.5742 335.084 63.0269 312.155 63.0269C289.226 63.0269 270.639 81.5742 270.639 104.453C270.639 127.333 289.226 145.88 312.155 145.88Z" stroke="#686868" stroke-width="1.5" stroke-linecap="round" stroke-linejoin="round"/>
<path d="M288.093 201.765L283.848 269.848C283.865 279.204 289.554 288.796 298.954 288.69C308.214 288.575 314.429 282.022 315.661 271.831L319.174 233.804C319.265 232.059 320.709 230.699 322.458 230.699C324.19 230.699 329.445 230.494 329.502 233.771L331.144 274.944C331.144 283.693 338.253 290.787 347.021 290.787C355.789 290.787 362.899 283.693 362.899 274.944V214.668C362.899 214.668 362.357 144.004 347.498 126.195" stroke="#686868" stroke-width="1.5" stroke-linecap="round" stroke-linejoin="round"/>
<path d="M288.93 169.293C264.178 171.562 246.207 162.362 237.677 157.824C232.595 155.096 230.33 149.034 232.374 143.652C234.631 137.762 241.232 134.796 247.151 137.016C265.82 143.914 277.839 141.841 283.585 139.818C285.014 139.351 286.377 138.712 287.641 137.909" stroke="#686868" stroke-width="1.5" stroke-linecap="round" stroke-linejoin="round"/>
<path d="M290.358 173.839C287.69 154.293 291.048 140.604 291.048 140.604" stroke="#686868" stroke-width="1.5" stroke-linecap="round" stroke-linejoin="round"/>
<path d="M283.602 139.777C279.719 154.383 288.979 169.268 288.979 169.268" stroke="#686868" stroke-width="1.5" stroke-linecap="round" stroke-linejoin="round"/>
<path d="M360.428 173.839C349.427 185.25 340.183 189.576 340.183 189.576C326.965 199.914 303.092 201.724 288.109 201.724C280.704 201.724 274.694 195.728 274.694 188.339C274.694 181.195 280.318 175.305 287.477 174.978C323.788 173.364 334.822 159.167 334.822 159.167C333.648 143.881 351.052 131.97 351.052 131.97" stroke="#686868" stroke-width="1.5" stroke-linecap="round" stroke-linejoin="round"/>
<path d="M329.732 163.525C325.069 150.746 330.077 141.833 330.077 141.833" stroke="#686868" stroke-width="1.5" stroke-linecap="round" stroke-linejoin="round"/>
<path d="M345.388 186.479C359.549 187.88 361.454 184.603 361.454 184.603" stroke="#686868" stroke-width="1.5" stroke-linecap="round" stroke-linejoin="round"/>
<path d="M362.472 193.565L365.542 193.344C371.741 192.992 377.955 192.148 376.987 181.834C374.868 159.405 372.299 141.186 368.416 130.913C364.91 121.624 360.822 122.64 355.239 123.541L348.253 124.638" stroke="#686868" stroke-width="1.5" stroke-linecap="round" stroke-linejoin="round"/>
<path d="M257.84 232.583L161.114 253.776V299.389L257.84 274.977V232.583Z" stroke="#686868" stroke-width="1.5" stroke-linecap="round" stroke-linejoin="round"/>
<path d="M161.114 299.388L131.839 287.035" stroke="#686868" stroke-width="1.5" stroke-linecap="round" stroke-linejoin="round"/>
<path d="M101.282 274.149L97.1118 272.388L94.6489 234.615L102.136 236.769" stroke="#686868" stroke-width="1.5" stroke-linecap="round" stroke-linejoin="round"/>
<path d="M257.84 232.583L214.083 223.22" stroke="#686868" stroke-width="1.5" stroke-linecap="round" stroke-linejoin="round"/>
<path d="M239.467 217.862L160.104 234.615V212.513L239.467 197.194V217.862Z" stroke="#686868" stroke-width="1.5" stroke-linecap="round" stroke-linejoin="round"/>
<path d="M160.104 234.615L97.1118 216.462L93.8279 197.194L160.104 212.513" stroke="#686868" stroke-width="1.5" stroke-linecap="round" stroke-linejoin="round"/>
<path d="M151.402 179.131V196.375L217.572 183.276V167.695L151.402 179.131Z" stroke="#686868" stroke-width="1.5" stroke-linecap="round" stroke-linejoin="round"/>
<path d="M151.402 196.375L91.2665 182.039L88.8036 166.581L151.402 179.131" stroke="#686868" stroke-width="1.5" stroke-linecap="round" stroke-linejoin="round"/>
<path d="M194.88 188.584L239.467 197.194" stroke="#686868" stroke-width="1.5" stroke-linecap="round" stroke-linejoin="round"/>
<path d="M137.339 193.065L93.8279 197.194" stroke="#686868" stroke-width="1.5" stroke-linecap="round" stroke-linejoin="round"/>
<path d="M191.605 247.099V237.154L218.376 231.551V240.579" stroke="#686868" stroke-width="1.5" stroke-linecap="round" stroke-linejoin="round"/>
<path d="M179.282 249.803V230.871L191.605 237.154" stroke="#686868" stroke-width="1.5" stroke-linecap="round" stroke-linejoin="round"/>
<path d="M207.77 224.555L218.376 231.551" stroke="#686868" stroke-width="1.5" stroke-linecap="round" stroke-linejoin="round"/>
<path d="M174.176 148.805H146.041V172.438H174.176V148.805Z" stroke="#686868" stroke-width="1.5" stroke-linecap="round" stroke-linejoin="round"/>
<path d="M126.437 172.446C133.972 172.446 140.081 166.351 140.081 158.831C140.081 151.312 133.972 145.216 126.437 145.216C118.901 145.216 112.792 151.312 112.792 158.831C112.792 166.351 118.901 172.446 126.437 172.446Z" stroke="#686868" stroke-width="1.5" stroke-linecap="round" stroke-linejoin="round"/>
<path d="M88.8036 166.581L113.326 164.263" stroke="#686868" stroke-width="1.5" stroke-linecap="round" stroke-linejoin="round"/>
<path d="M101.873 282.529C98.2119 232.559 105.083 232.559 105.083 232.559L134.638 240.308" stroke="#686868" stroke-width="1.5" stroke-linecap="round" stroke-linejoin="round"/>
<path d="M138.866 247.394C138.332 240.112 134.761 240.374 134.761 240.374C128.432 240.194 130.574 271.978 132.577 296.513C132.586 296.636 132.594 296.751 132.594 296.874C132.594 299.266 130.648 301.199 128.251 301.191C126.1 301.191 124.277 299.618 123.966 297.496L123.218 292.499L95.3713 279.843L96.923 287.002L125.985 300.503" stroke="#686868" stroke-width="1.5" stroke-linecap="round" stroke-linejoin="round"/>
<path d="M141.879 248.23L147.494 241.439H167.559L174.176 250.917L161.114 253.776L131.535 245.248" fill="#FD8753"/>
<path d="M141.879 248.23L147.494 241.439H167.559L174.176 250.917L161.114 253.776L131.535 245.248" stroke="#686868" stroke-width="1.5" stroke-linecap="round" stroke-linejoin="round"/>
<path d="M256.198 131.888H219.813V156.366H256.198V131.888Z" fill="url(#paint0_linear_1908_57658)" stroke="#686868" stroke-width="1.5" stroke-linecap="round" stroke-linejoin="round"/>
<path d="M158.569 95.1229V108.148C158.569 110.769 160.704 112.899 163.331 112.899H188.222L194.158 119.895V95.1229C194.158 92.5015 192.023 90.3716 189.396 90.3716H163.331C160.704 90.3716 158.577 92.4851 158.569 95.1065V95.1229V95.1229Z" stroke="#686868" stroke-width="1.5" stroke-linecap="round" stroke-linejoin="round"/>
<path d="M165.81 97.9983H185.505" stroke="#686868" stroke-width="1.5" stroke-linecap="round" stroke-linejoin="round"/>
<path d="M165.81 103.733H177.295" stroke="#686868" stroke-width="1.5" stroke-linecap="round" stroke-linejoin="round"/>
<path d="M174.176 160.625L217.572 167.695" stroke="#686868" stroke-width="1.5" stroke-linecap="round" stroke-linejoin="round"/>
<path d="M140.081 158.831H146.041" stroke="#686868" stroke-width="1.5" stroke-linecap="round" stroke-linejoin="round"/>
<path d="M164.932 164.549L168.692 160.798L164.644 156.759" stroke="#686868" stroke-width="1.5" stroke-linecap="round" stroke-linejoin="round"/>
<path d="M156.188 156.759L152.428 160.511L156.476 164.549" stroke="#686868" stroke-width="1.5" stroke-linecap="round" stroke-linejoin="round"/>
<path d="M161.319 164.353L159.801 156.955" stroke="#686868" stroke-width="1.5" stroke-linecap="round" stroke-linejoin="round"/>
<path d="M160.104 212.513L196.514 205.484L202.129 198.57L168.117 193.065L151.402 210.506L160.104 212.513Z" fill="#D1DAFA" stroke="#686868" stroke-width="1.5" stroke-linecap="round" stroke-linejoin="round"/>
<path d="M202.129 203.633V198.57" stroke="#686868" stroke-width="1.5" stroke-linecap="round" stroke-linejoin="round"/>
<path d="M151.402 209.63L158.257 203.355C158.257 203.355 146.821 199.119 138.841 207.598L151.402 209.63Z" stroke="#686868" stroke-width="1.5" stroke-linecap="round" stroke-linejoin="round"/>
<path d="M107.333 247.099L124.565 251.695" stroke="#686868" stroke-width="1.5" stroke-linecap="round" stroke-linejoin="round"/>
<path d="M107.333 254.472L117.685 257.454" stroke="#686868" stroke-width="1.5" stroke-linecap="round" stroke-linejoin="round"/>
<path d="M106.512 261.026L116.864 264.008" stroke="#686868" stroke-width="1.5" stroke-linecap="round" stroke-linejoin="round"/>
<path d="M106.512 268.398L116.864 271.38" stroke="#686868" stroke-width="1.5" stroke-linecap="round" stroke-linejoin="round"/>
<path d="M226.052 140.604C227.413 140.604 228.515 139.504 228.515 138.147C228.515 136.79 227.413 135.689 226.052 135.689C224.692 135.689 223.589 136.79 223.589 138.147C223.589 139.504 224.692 140.604 226.052 140.604Z" fill="white" stroke="#686868" stroke-width="1.5"/>
<path d="M246.084 156.374V146.38" stroke="#686868" stroke-width="1.5" stroke-linecap="round" stroke-linejoin="round"/>
<path d="M241.051 156.374V146.38" stroke="#686868" stroke-width="1.5" stroke-linecap="round" stroke-linejoin="round"/>
<path d="M251.116 156.374V146.38" stroke="#686868" stroke-width="1.5" stroke-linecap="round" stroke-linejoin="round"/>
<path d="M128.686 154.49C129.856 154.49 130.804 153.543 130.804 152.376C130.804 151.209 129.856 150.263 128.686 150.263C127.516 150.263 126.568 151.209 126.568 152.376C126.568 153.543 127.516 154.49 128.686 154.49Z" fill="#686868"/>
<path d="M128.686 168.416C129.856 168.416 130.804 167.47 130.804 166.302C130.804 165.135 129.856 164.189 128.686 164.189C127.516 164.189 126.568 165.135 126.568 166.302C126.568 167.47 127.516 168.416 128.686 168.416Z" fill="#686868"/>
<path d="M121.396 154.49C122.566 154.49 123.514 153.543 123.514 152.376C123.514 151.209 122.566 150.263 121.396 150.263C120.226 150.263 119.278 151.209 119.278 152.376C119.278 153.543 120.226 154.49 121.396 154.49Z" fill="#686868"/>
<path d="M128.686 165.95V152.966" stroke="#686868" stroke-width="1.5" stroke-linecap="round" stroke-linejoin="round"/>
<path d="M121.396 153.793V156.046C121.396 158.487 123.383 160.47 125.829 160.47H128.686" stroke="#686868" stroke-width="1.5" stroke-linecap="round" stroke-linejoin="round"/>
<path d="M132.996 227.119L94.6161 234.615L56.8517 154.801C56.6219 154.318 56.4741 153.802 56.4248 153.269C56.1621 150.697 58.0421 148.395 60.6199 148.133L154.891 138.475C156.903 138.27 158.815 139.367 159.653 141.202L163.101 148.805" stroke="#686868" stroke-width="1.5" stroke-linecap="round" stroke-linejoin="round"/>
<path d="M58.1817 149.108L46.3106 160.183C41.4587 164.5 39.9399 171.439 42.5424 177.386L73.4763 245.133C76.1198 251.187 82.3345 254.898 88.935 254.349L95.3385 254.235" stroke="#686868" stroke-width="1.5" stroke-linecap="round" stroke-linejoin="round"/>
<path d="M285.827 139.499C319.338 139.769 319.864 121.673 320.578 114.104C320.8 111.695 320.488 107.616 319.109 105.625C316.252 101.488 309.265 95.3523 292.92 94.8526C286.196 94.6232 279.472 95.2294 272.905 96.6548" stroke="#686868" stroke-width="1.5" stroke-linecap="round" stroke-linejoin="round"/>
<g opacity="0.7">
<path opacity="0.7" d="M304.274 57.2025C306.572 54.9087 306.564 51.1896 304.266 48.8958C301.959 46.6021 298.231 46.6021 295.933 48.8958C293.634 51.1978 293.634 54.9169 295.933 57.2106C298.231 59.5044 301.967 59.5044 304.266 57.2106C304.266 57.2106 304.266 57.2106 304.274 57.2025Z" fill="#FF6C37"/>
</g>
<path d="M304.274 57.2025C306.572 54.9087 306.564 51.1896 304.266 48.8958C301.959 46.6021 298.231 46.6021 295.933 48.8958C293.634 51.1978 293.634 54.9169 295.933 57.2106C298.231 59.5044 301.967 59.5044 304.266 57.2106C304.266 57.2106 304.266 57.2106 304.274 57.2025Z" fill="#FD8753" stroke="#686868" stroke-width="1.5" stroke-miterlimit="10"/>
<path d="M302.541 64.0099L301.244 58.8572" stroke="#686868" stroke-width="1.5" stroke-linecap="round" stroke-linejoin="round"/>
<path d="M337.909 110.729C341.349 110.729 344.132 107.951 344.132 104.519C344.132 101.087 341.349 98.3096 337.909 98.3096C334.469 98.3096 331.686 101.087 331.686 104.519C331.686 107.951 334.469 110.729 337.909 110.729Z" stroke="#686868" stroke-width="1.5" stroke-linecap="round" stroke-linejoin="round"/>
<path d="M224.509 186.528L231.093 188.584" stroke="#686868" stroke-width="1.5" stroke-linecap="round" stroke-linejoin="round"/>
<path d="M223.368 200.119L227.801 187.872" stroke="#686868" stroke-width="1.5" stroke-linecap="round" stroke-linejoin="round"/>
<path d="M303.182 152.606H296.187C295.779 152.606 295.448 152.936 295.448 153.343V160.56C295.448 160.967 295.779 161.297 296.187 161.297H303.182C303.59 161.297 303.921 160.967 303.921 160.56V153.343C303.921 152.936 303.59 152.606 303.182 152.606Z" stroke="#686868" stroke-width="1.5" stroke-linecap="round" stroke-linejoin="round"/>
<path d="M77.9259 145.208L75.3316 138.04L125.739 133.068L128.185 140.293" stroke="#686868" stroke-width="1.5" stroke-linecap="round" stroke-linejoin="round"/>
<path d="M136.961 240.964C132.66 238.785 131.839 244.773 131.839 244.773L138.841 247.353L136.961 240.964Z" fill="#686868"/>
<path d="M115.583 120.469C125.359 120.469 133.283 112.561 133.283 102.807C133.283 93.0526 125.359 85.1451 115.583 85.1451C105.808 85.1451 97.8835 93.0526 97.8835 102.807C97.8835 112.561 105.808 120.469 115.583 120.469Z" stroke="#686868" stroke-width="1.5" stroke-linecap="round" stroke-linejoin="round"/>
<path d="M115.583 120.469C125.361 120.469 133.283 112.563 133.283 102.807C133.283 95.131 128.366 88.6184 121.511 86.1854C130.024 87.4634 136.567 94.7706 136.567 103.626C136.567 113.383 128.645 121.288 118.867 121.288C116.782 121.288 114.795 120.911 112.94 120.247C113.802 120.379 114.689 120.469 115.583 120.469Z" fill="#686868"/>
<path d="M118.219 98.6454V93.5909C118.219 93.5909 118.219 93.5582 118.219 93.5418C118.252 92.6734 118.99 92.0017 119.861 92.0345C120.715 92.0509 121.404 92.739 121.412 93.5909V98.6454" fill="#686868"/>
<path d="M110.009 98.6454V93.5909C110.009 93.5909 110.009 93.5582 110.009 93.5418C110.042 92.6734 110.781 92.0017 111.651 92.0345C112.505 92.0509 113.194 92.739 113.203 93.5909V98.6454" fill="#686868"/>
<path d="M123.53 98.6454V104.118C123.53 108.5 119.976 112.047 115.583 112.047C111.191 112.047 107.637 108.5 107.637 104.118V98.6454H123.53V98.6454Z" stroke="#686868" stroke-width="1.5" stroke-linecap="round" stroke-linejoin="round"/>
<path d="M75.3316 138.032L72.4008 146.593" stroke="#686868" stroke-width="1.5" stroke-linecap="round" stroke-linejoin="round"/>
<path d="M225.584 68.2042L227.456 73.9386L233.203 75.8063L227.456 77.6741L225.584 83.4084L223.713 77.6741L217.966 75.8063L223.713 73.9386L225.584 68.2042Z" stroke="#686868" stroke-width="1.5" stroke-miterlimit="10"/>
<path d="M121.396 37.4353L123.276 43.1696L129.023 45.0374L123.276 46.9052L121.396 52.6395L119.524 46.9052L113.777 45.0374L119.524 43.1696L121.396 37.4353Z" stroke="#686868" stroke-width="1.5" stroke-miterlimit="10"/>
<path d="M68.296 108.238L69.1908 110.974L71.9328 111.859L69.1908 112.752L68.296 115.488L67.4093 112.752L64.6673 111.859L67.4093 110.974L68.296 108.238Z" fill="#75716F"/>
<path d="M419.389 41.6378C419.66 37.2223 418.897 32.8069 417.156 28.7437C415.572 24.9672 412.978 21.6986 409.661 19.2902C406.591 17.0866 402.888 15.9397 399.112 16.0298C395.278 16.1937 391.591 17.5617 388.587 19.9456C386.846 14.4242 383.571 9.50906 379.146 5.77355C375.09 2.3739 369.984 0.473372 364.689 0.407837C359.344 0.448797 354.164 2.29198 350.001 5.64248C345.42 9.32884 341.948 14.2112 339.969 19.7408C337.342 18.0205 334.264 17.1276 331.119 17.1849C327.934 17.275 324.855 18.299 322.245 20.1176C319.421 22.1 317.114 24.7379 315.546 27.8098C313.846 31.0866 312.861 34.691 312.664 38.3774L419.389 41.6378Z" fill="#FFDE83"/>
<path d="M44.2581 272.388H97.1118" stroke="#686868" stroke-width="1.5"/>
<path d="M27.5762 272.388H39.1846" stroke="#686868" stroke-width="1.5"/>
<path d="M283.906 272.347H258.136" stroke="#686868" stroke-width="1.5"/>
<path d="M395.171 269.537H363.186" stroke="#686868" stroke-width="1.5"/>
<defs>
<linearGradient id="paint0_linear_1908_57658" x1="235.354" y1="129.152" x2="240.627" y2="159.106" gradientUnits="userSpaceOnUse">
<stop stop-color="#FF6D37"/>
<stop offset="0.54" stop-color="#FA9139"/>
<stop offset="1" stop-color="#F7AC3B"/>
</linearGradient>
</defs>
</svg>
